<svg xmlns="http://www.w3.org/2000/svg" xmlns:xlink="http://www.w3.org/1999/xlink" width="56" height="49" viewBox="0 0 45 36" version="1.1">
    <!-- Generator: Sketch 61.2 (89653) - https://sketch.com -->
    <title>symbol</title>
    <desc>Created with Sketch.</desc>
    <g id="Page-1" stroke="none" stroke-width="1" fill="none" fill-rule="evenodd">
        <g id="Menu" transform="translate(-712.000000, -30.000000)" fill="#cf2e2e" fill-rule="nonzero">
            <g id="Group-2" transform="translate(712.000000, 29.999714)">
                <path d="M28.4,20.3002857 L28.4,20.3002857 L29,20.7002857 L31.6,16.5002857 C34.1,19.3002857 34.8,23.8002857 30.9,26.0002857 C28.4,27.5002857 24.5,26.5002857 24.2,23.2002857 C24,21.6002857 25.1,20.2002857 26.7,20.0002857 C27.3,19.9002857 27.9,20.0002857 28.4,20.3002857 Z M25.1,10.7002857 C27,10.6002857 29,10.9002857 30.7,11.7002857 L33.6,2.00028566 C26.2,-1.39971434 16.8,-0.39971434 10,4.50028566 C8.9,5.20028566 7.9,6.10028566 6.9,7.00028566 C3.4,10.4002857 1,14.8002857 -1.52766688e-13,19.6002857 L13.8,20.9002857 C14.9,15.3002857 19.5,11.2002857 25.1,10.7002857 L25.1,10.7002857 Z M42.4,10.1002857 C41.5,8.50028566 40.4,7.10028566 39.2,5.80028566 C39,5.60028566 38.7,5.40028566 38.5,5.10028566 L33.5,13.3002857 C35.4,15.0002857 36.6,17.3002857 36.9,19.8002857 C37.5,24.0002857 35.1,28.1002857 31,29.6002857 C27,30.9002857 22.5,29.2002857 21.1,25.1002857 C19.6,20.8002857 22.7,16.0002857 27.4,16.4002857 C28,16.5002857 28.6,16.6002857 29.2,16.9002857 L29.8,15.0002857 C29,14.5002857 28.2,14.2002857 27.3,14.1002857 C20.8,13.3002857 16.3,19.2002857 17.1,25.3002857 C17.9,30.8002857 22.3,35.1002857 27.9,35.6002857 C34.1,36.2002857 40,33.1002857 43,27.7002857 C45.8,22.3002857 45.3,15.4002857 42.4,10.1002857 L42.4,10.1002857 Z" id="symbol"/>
            </g>
        </g>
    </g>
</svg>